<svg id="Layer_3" data-name="Layer 3" xmlns="http://www.w3.org/2000/svg" viewBox="0 0 52.17 21.24"><defs><style>.cls-1{fill:#3c3c3b;}</style></defs><title>REA-Logo</title><path class="cls-1" d="M96.26,48.43h5.92A3.85,3.85,0,0,1,106,52.25a3.69,3.69,0,0,1-3.87,3.68H96.61l9.31,11.34h2.64L100.93,58h1.25a5.76,5.76,0,0,0,5.91-5.72,5.9,5.9,0,0,0-5.91-5.87H94.94a0.77,0.77,0,0,0-.73.74V67.27h2V48.43" transform="translate(-94.21 -46.03)"/><polyline class="cls-1" points="30.19 11.93 30.19 9.89 21.45 9.89 23.15 11.93"/><path class="cls-1" d="M115.4,55.92v0Z" transform="translate(-94.21 -46.03)"/><path class="cls-1" d="M115.4,48.43h10.84v-2H114.09a0.77,0.77,0,0,0-.73.75V67.27h12.89v-2H115.4" transform="translate(-94.21 -46.03)"/><path class="cls-1" d="M138.55,46c-4.46,0-7.83,3.53-7.83,8.22v13h2V64.14h0V55.62h0V54.25a5.8,5.8,0,1,1,11.58,0v1.68H133l1.71,2h9.62v9.3h2v-13c0-4.68-3.36-8.22-7.83-8.22" transform="translate(-94.21 -46.03)"/><rect class="cls-1" x="38.54" y="9.58" height="8.52"/></svg>